<mxfile host="app.diagrams.net" agent="Mozilla/5.0 (Macintosh; Intel Mac OS X 10_15_7) AppleWebKit/537.36 (KHTML, like Gecko) Chrome/129.0.0.0 Safari/537.36" version="24.8.0">
  <diagram name="第 1 页" id="2dcAdgP-2C7tUKXjDjCs">
    <mxGraphModel dx="1026" dy="650" grid="1" gridSize="10" guides="1" tooltips="1" connect="1" arrows="1" fold="1" page="1" pageScale="1" pageWidth="827" pageHeight="1169" math="0" shadow="0">
      <root>
        <mxCell id="0" />
        <mxCell id="1" parent="0" />
        <mxCell id="ZIL89ulPozFnJqzww_c7-3" value="" style="edgeStyle=orthogonalEdgeStyle;rounded=0;orthogonalLoop=1;jettySize=auto;html=1;" edge="1" parent="1" source="ZIL89ulPozFnJqzww_c7-1" target="ZIL89ulPozFnJqzww_c7-2">
          <mxGeometry relative="1" as="geometry" />
        </mxCell>
        <mxCell id="ZIL89ulPozFnJqzww_c7-1" value="实体列表查询" style="ellipse;whiteSpace=wrap;html=1;" vertex="1" parent="1">
          <mxGeometry x="354" y="150" width="96" height="50" as="geometry" />
        </mxCell>
        <mxCell id="ZIL89ulPozFnJqzww_c7-5" value="" style="edgeStyle=orthogonalEdgeStyle;rounded=0;orthogonalLoop=1;jettySize=auto;html=1;" edge="1" parent="1" source="ZIL89ulPozFnJqzww_c7-2" target="ZIL89ulPozFnJqzww_c7-4">
          <mxGeometry relative="1" as="geometry" />
        </mxCell>
        <mxCell id="ZIL89ulPozFnJqzww_c7-2" value="查询实体表&lt;div&gt;（一期只有一条数据）&lt;/div&gt;" style="shape=process;whiteSpace=wrap;html=1;backgroundOutline=1;" vertex="1" parent="1">
          <mxGeometry x="342" y="275" width="120" height="65" as="geometry" />
        </mxCell>
        <mxCell id="ZIL89ulPozFnJqzww_c7-4" value="返回信息" style="whiteSpace=wrap;html=1;" vertex="1" parent="1">
          <mxGeometry x="342" y="422.5" width="120" height="60" as="geometry" />
        </mxCell>
      </root>
    </mxGraphModel>
  </diagram>
</mxfile>
